<!DOCTYPE svg PUBLIC "-//W3C//DTD SVG 1.1//EN" "http://www.w3.org/Graphics/SVG/1.1/DTD/svg11.dtd">
<!-- Uploaded to: SVG Repo, www.svgrepo.com, Transformed by: SVG Repo Mixer Tools -->
<svg height="800px" width="800px" version="1.1" id="Layer_1" xmlns="http://www.w3.org/2000/svg" xmlns:xlink="http://www.w3.org/1999/xlink" viewBox="0 0 508 508" xml:space="preserve" fill="#000000">
<g id="SVGRepo_bgCarrier" stroke-width="0"/>
<g id="SVGRepo_tracerCarrier" stroke-linecap="round" stroke-linejoin="round"/>
<g id="SVGRepo_iconCarrier"> <polygon style="fill:#FFFFFF;" points="116.4,288.987 254,407.087 391.6,288.987 391.6,82.388 116.4,82.388 "/> <polygon style="fill:#56ACE0;" points="144.6,274.587 144.6,110.688 363.4,110.688 363.4,274.587 254,369.587 "/> <g> <path style="fill:#194F82;" d="M342.2,260.787c0-6.4-5.6-11.7-12.6-11.7H178.4c-6.9,0-12.6,5.2-12.6,11.7c0,6.5,5.6,11.7,12.6,11.7 h151.2C336.5,272.387,342.2,267.188,342.2,260.787z"/> <path style="fill:#194F82;" d="M308.1,304.688c0-6.4-5.6-11.7-12.6-11.7h-83c-6.9,0-12.6,5.2-12.6,11.7s5.6,11.7,12.6,11.7h83 C302.4,316.287,308.1,311.087,308.1,304.688z"/> </g> <g> <polygon style="fill:#cbc6b9;" points="479.8,463.188 479.8,250.588 355.8,356.887 "/> <path style="fill:#cbc6b9;" d="M28.2,250.588v71.1h39.1c7.8,0,14.1,6.3,14.1,14.1s-6.3,14.1-14.1,14.1H28.2v21.8h21.5 c7.8,0,14.1,6.3,14.1,14.1c0,7.8-6.3,14.1-14.1,14.1H28.2v63.3l123.9-106.3L28.2,250.588z"/> <path style="fill:#cbc6b9;" d="M52.2,479.787h403.5l-121.5-104.3l-71,60.9c-5.2,4.6-13.4,4.3-18.4,0l-71-60.9L52.2,479.787z"/> </g> <g> <polygon style="fill:#FFFFFF;" points="279.1,54.188 254,32.688 228.9,54.188 "/> <polygon style="fill:#FFFFFF;" points="419.8,264.787 472.2,219.887 419.8,174.887 "/> <polygon style="fill:#FFFFFF;" points="88.2,174.887 35.8,219.887 88.2,264.787 "/> </g> <g> <path style="fill:#194F82;" d="M254,230.288c3,0,6.1-0.3,9.1-0.8c4.4-0.7,7.1-5.4,5.7-9.7c-1.2-3.6-4.7-5.6-8.4-5 c-1.9,0.3-3.8,0.5-5.7,0.5c-18.9,0.3-35.5-11.4-40.6-29.6c-7.8-28.1,13-53.6,39.9-53.6c22.8,0,41.6,18.6,41.6,41.6 c0,16-8.3,23.3-12.3,25.9c-2.7,0.1-3.1-2.6-3.1-3.2v-22.7c0-22.6,0-22.6,0-22.6c0-4.2-3.2-7.6-7.4-7.6c-2.9,0-5.3,1.6-6.6,4 c-4.2-2.6-8.9-4-14.1-4c-15.5,0-28.3,13.6-28.3,30.3s12.8,30.3,28.3,30.3c4.7,0,9.1-1.3,12.9-3.4l1.1,3.6 c8.9,14,20.1,10.8,20.9,10.5c1-0.3,23.6-9.7,23.6-40.9c0-35-31.8-62.6-68-55.5c-22,4.3-39.8,22.1-44.1,44.1 C191.4,198.488,219.1,230.288,254,230.288z M252.2,188.688c-7.3,0-13.3-6.8-13.3-15.1c0-8.2,6-15,13.3-15s13.3,6.8,13.3,15 C265.5,181.988,259.5,188.688,252.2,188.688z"/> <path style="fill:#194F82;" d="M503.1,209.188l-83.2-71.4v-69.5c0-7.8-6.3-14.1-14.1-14.1h-83.3l-59.3-50.8 c-5.3-4.5-13.1-4.5-18.4,0l-59.2,50.8h-83.3c-7.8,0-14.1,6.3-14.1,14.1v69.4l-83.3,71.5c-2.8,2.5-4.7,5.8-4.9,10.7v274 c0,7.1,5.9,13.6,14.1,14.1h479.8c8.7,0,14.1-7.4,14.1-14.1v-274C507.7,215.688,506.4,211.887,503.1,209.188z M419.8,174.887 l52.4,44.9l-52.4,44.9V174.887z M254,32.688l25.1,21.5h-50.2L254,32.688z M116.4,82.388h275.2v206.6L254,407.087l-137.6-118.1 V82.388z M88.2,174.887v89.9l-52.4-44.9L88.2,174.887z M28.2,399.887h21.5c7.8,0,14.1-6.3,14.1-14.1c0-7.8-6.3-14.1-14.1-14.1H28.2 v-21.8h39.1c7.8,0,14.1-6.3,14.1-14.1s-6.3-14.1-14.1-14.1H28.2v-71.1l123.9,106.3l-123.9,106.3V399.887z M52.2,479.787 l121.6-104.3l71,60.9c5,4.3,13.1,4.6,18.4,0l71-60.9l121.6,104.3H52.2z M479.8,463.188l-124-106.3l123.9-106.3v212.6H479.8z"/> </g> </g>
</svg>