<!DOCTYPE svg PUBLIC "-//W3C//DTD SVG 1.1//EN" "http://www.w3.org/Graphics/SVG/1.1/DTD/svg11.dtd">
<!-- Uploaded to: SVG Repo, www.svgrepo.com, Transformed by: SVG Repo Mixer Tools -->
<svg xmlns="http://www.w3.org/2000/svg" xmlns:xlink="http://www.w3.org/1999/xlink" version="1.1" id="Capa_1" viewBox="0 0 455 455" xml:space="preserve" width="800px" height="800px" fill="#000000" stroke="#000000">
<g id="SVGRepo_bgCarrier" stroke-width="0"/>
<g id="SVGRepo_tracerCarrier" stroke-linecap="round" stroke-linejoin="round"/>
<g id="SVGRepo_iconCarrier"> <g> <path style="fill:#185F8D;" d="M363.75,0H91.25c-16.5,0-30,13.5-30,30v395c0,16.5,13.5,30,30,30h272.5c16.5,0,30-13.5,30-30V30 C393.75,13.5,380.25,0,363.75,0z"/> <polygon style="fill:#FFFFFF;" points="363.76,30 363.76,395 91.24,395 91.26,29.98 "/> <path style="fill:#082947;" d="M242.501,432.502h-30c-4.142,0-7.5-3.358-7.5-7.5s3.358-7.5,7.5-7.5h30c4.143,0,7.5,3.358,7.5,7.5 S246.644,432.502,242.501,432.502z"/> <path style="fill:#185F8D;" d="M323.763,77.479h-192.5c-4.142,0-7.5-3.358-7.5-7.5s3.358-7.5,7.5-7.5h192.5 c4.143,0,7.5,3.358,7.5,7.5S327.906,77.479,323.763,77.479z"/> <path style="fill:#185F8D;" d="M323.763,113.106h-192.5c-4.142,0-7.5-3.358-7.5-7.5s3.358-7.5,7.5-7.5h192.5 c4.143,0,7.5,3.358,7.5,7.5S327.906,113.106,323.763,113.106z"/> <path style="fill:#185F8D;" d="M227.513,148.734h-96.25c-4.142,0-7.5-3.358-7.5-7.5s3.358-7.5,7.5-7.5h96.25 c4.143,0,7.5,3.358,7.5,7.5S231.656,148.734,227.513,148.734z"/> <path style="fill:#185F8D;" d="M323.763,184.362h-192.5c-4.142,0-7.5-3.358-7.5-7.5s3.358-7.5,7.5-7.5h192.5 c4.143,0,7.5,3.358,7.5,7.5S327.906,184.362,323.763,184.362z"/> <path style="fill:#185F8D;" d="M323.763,219.99h-192.5c-4.142,0-7.5-3.358-7.5-7.5s3.358-7.5,7.5-7.5h192.5 c4.143,0,7.5,3.358,7.5,7.5S327.906,219.99,323.763,219.99z"/> <path style="fill:#185F8D;" d="M323.763,255.618h-192.5c-4.142,0-7.5-3.358-7.5-7.5s3.358-7.5,7.5-7.5h192.5 c4.143,0,7.5,3.358,7.5,7.5S327.906,255.618,323.763,255.618z"/> <path style="fill:#185F8D;" d="M323.763,291.246h-192.5c-4.142,0-7.5-3.358-7.5-7.5s3.358-7.5,7.5-7.5h192.5 c4.143,0,7.5,3.358,7.5,7.5S327.906,291.246,323.763,291.246z"/> <path style="fill:#185F8D;" d="M323.763,326.874h-192.5c-4.142,0-7.5-3.358-7.5-7.5s3.358-7.5,7.5-7.5h192.5 c4.143,0,7.5,3.358,7.5,7.5S327.906,326.874,323.763,326.874z"/> <path style="fill:#185F8D;" d="M227.513,362.502h-96.25c-4.142,0-7.5-3.358-7.5-7.5s3.358-7.5,7.5-7.5h96.25 c4.143,0,7.5,3.358,7.5,7.5S231.656,362.502,227.513,362.502z"/> </g> </g>
</svg>